<mxfile host="Electron" modified="2024-06-21T19:05:01.048Z" agent="Mozilla/5.0 (Macintosh; Intel Mac OS X 10_15_7) AppleWebKit/537.36 (KHTML, like Gecko) draw.io/24.5.3 Chrome/124.0.6367.207 Electron/30.0.6 Safari/537.36" etag="kFVlP0492ydne5nOr354" version="24.5.3" type="device">
  <diagram name="Page-1" id="CSNAlLGdKrBM-kzuxKbx">
    <mxGraphModel dx="3502" dy="2195" grid="1" gridSize="10" guides="1" tooltips="1" connect="1" arrows="1" fold="1" page="1" pageScale="1" pageWidth="1382" pageHeight="579" math="0" shadow="0">
      <root>
        <mxCell id="0" />
        <mxCell id="1" parent="0" />
        <mxCell id="UEnFydn-pe2DowMeDtWQ-64" value="" style="rounded=0;whiteSpace=wrap;html=1;" parent="1" vertex="1">
          <mxGeometry x="-265.58" y="727.5" width="140.1" height="172.5" as="geometry" />
        </mxCell>
        <mxCell id="b793zvSdY8i9Sv9kPf9C-8" value="" style="rounded=0;whiteSpace=wrap;html=1;fillColor=none;strokeColor=#007FFF;strokeWidth=5;dashed=1;" parent="1" vertex="1">
          <mxGeometry x="1302.02" y="-289" width="450" height="294.5" as="geometry" />
        </mxCell>
        <mxCell id="UEnFydn-pe2DowMeDtWQ-4" value="" style="sketch=0;outlineConnect=0;fontColor=#232F3E;gradientColor=none;fillColor=#007FFF;strokeColor=none;dashed=0;verticalLabelPosition=bottom;verticalAlign=top;align=center;html=1;fontSize=12;fontStyle=0;aspect=fixed;pointerEvents=1;shape=mxgraph.aws4.organizations_organizational_unit;" parent="1" vertex="1">
          <mxGeometry x="-0.7800000000000011" y="284" width="128.06" height="110" as="geometry" />
        </mxCell>
        <mxCell id="UEnFydn-pe2DowMeDtWQ-7" value="" style="sketch=0;outlineConnect=0;fontColor=#232F3E;gradientColor=none;fillColor=#007FFF;strokeColor=none;dashed=0;verticalLabelPosition=bottom;verticalAlign=top;align=center;html=1;fontSize=12;fontStyle=0;aspect=fixed;pointerEvents=1;shape=mxgraph.aws4.organizations_organizational_unit;" parent="1" vertex="1">
          <mxGeometry x="519" y="284" width="128.06" height="110" as="geometry" />
        </mxCell>
        <mxCell id="UEnFydn-pe2DowMeDtWQ-8" value="" style="sketch=0;outlineConnect=0;fontColor=#232F3E;gradientColor=none;fillColor=#007FFF;strokeColor=none;dashed=0;verticalLabelPosition=bottom;verticalAlign=top;align=center;html=1;fontSize=12;fontStyle=0;aspect=fixed;pointerEvents=1;shape=mxgraph.aws4.organizations_organizational_unit;" parent="1" vertex="1">
          <mxGeometry x="1254.9999999999998" y="275" width="128.06" height="110" as="geometry" />
        </mxCell>
        <mxCell id="UEnFydn-pe2DowMeDtWQ-14" value="" style="endArrow=none;html=1;rounded=0;endFill=0;" parent="1" edge="1">
          <mxGeometry width="50" height="50" relative="1" as="geometry">
            <mxPoint x="691" y="80" as="sourcePoint" />
            <mxPoint x="691.37" y="214" as="targetPoint" />
          </mxGeometry>
        </mxCell>
        <mxCell id="UEnFydn-pe2DowMeDtWQ-15" value="" style="endArrow=none;html=1;rounded=0;" parent="1" edge="1">
          <mxGeometry width="50" height="50" relative="1" as="geometry">
            <mxPoint x="60" y="215" as="sourcePoint" />
            <mxPoint x="1320" y="215" as="targetPoint" />
          </mxGeometry>
        </mxCell>
        <mxCell id="UEnFydn-pe2DowMeDtWQ-18" value="" style="endArrow=classic;html=1;rounded=0;" parent="1" edge="1">
          <mxGeometry width="50" height="50" relative="1" as="geometry">
            <mxPoint x="59.22" y="214" as="sourcePoint" />
            <mxPoint x="59.22" y="274" as="targetPoint" />
          </mxGeometry>
        </mxCell>
        <mxCell id="UEnFydn-pe2DowMeDtWQ-19" value="" style="endArrow=classic;html=1;rounded=0;" parent="1" edge="1">
          <mxGeometry width="50" height="50" relative="1" as="geometry">
            <mxPoint x="582.5" y="217" as="sourcePoint" />
            <mxPoint x="582.5" y="277" as="targetPoint" />
          </mxGeometry>
        </mxCell>
        <mxCell id="UEnFydn-pe2DowMeDtWQ-20" value="" style="endArrow=classic;html=1;rounded=0;" parent="1" edge="1">
          <mxGeometry width="50" height="50" relative="1" as="geometry">
            <mxPoint x="1319.6999999999998" y="215" as="sourcePoint" />
            <mxPoint x="1319.6999999999998" y="275" as="targetPoint" />
          </mxGeometry>
        </mxCell>
        <mxCell id="UEnFydn-pe2DowMeDtWQ-30" value="ALV" style="text;html=1;strokeColor=none;fillColor=default;align=center;verticalAlign=middle;whiteSpace=wrap;rounded=0;fontSize=20;fontStyle=1" parent="1" vertex="1">
          <mxGeometry x="661" y="137" width="60" height="30" as="geometry" />
        </mxCell>
        <mxCell id="UEnFydn-pe2DowMeDtWQ-38" value="1 Account" style="text;html=1;strokeColor=none;fillColor=none;align=center;verticalAlign=middle;whiteSpace=wrap;rounded=0;fontSize=19;fontStyle=1" parent="1" vertex="1">
          <mxGeometry x="-261.48" y="734" width="160" height="30" as="geometry" />
        </mxCell>
        <mxCell id="UEnFydn-pe2DowMeDtWQ-41" value="" style="endArrow=none;html=1;rounded=0;exitX=0.541;exitY=1.075;exitDx=0;exitDy=0;exitPerimeter=0;endFill=0;" parent="1" edge="1">
          <mxGeometry width="50" height="50" relative="1" as="geometry">
            <mxPoint x="62.71999999999997" y="394" as="sourcePoint" />
            <mxPoint x="63.71999999999997" y="486" as="targetPoint" />
          </mxGeometry>
        </mxCell>
        <mxCell id="UEnFydn-pe2DowMeDtWQ-42" value="" style="endArrow=none;html=1;rounded=0;exitX=0.541;exitY=1.075;exitDx=0;exitDy=0;exitPerimeter=0;endFill=0;" parent="1" edge="1">
          <mxGeometry width="50" height="50" relative="1" as="geometry">
            <mxPoint x="586" y="394" as="sourcePoint" />
            <mxPoint x="587" y="486" as="targetPoint" />
          </mxGeometry>
        </mxCell>
        <mxCell id="UEnFydn-pe2DowMeDtWQ-43" value="" style="endArrow=none;html=1;rounded=0;exitX=0.541;exitY=1.075;exitDx=0;exitDy=0;exitPerimeter=0;endFill=0;" parent="1" edge="1">
          <mxGeometry width="50" height="50" relative="1" as="geometry">
            <mxPoint x="1319.6399999999999" y="385" as="sourcePoint" />
            <mxPoint x="1320" y="480" as="targetPoint" />
          </mxGeometry>
        </mxCell>
        <mxCell id="UEnFydn-pe2DowMeDtWQ-34" value="Apps" style="text;html=1;strokeColor=none;fillColor=none;align=center;verticalAlign=middle;whiteSpace=wrap;rounded=0;fontSize=20;fontStyle=1;labelBackgroundColor=default;" parent="1" vertex="1">
          <mxGeometry x="-6.780000000000001" y="417" width="130" height="30" as="geometry" />
        </mxCell>
        <mxCell id="UEnFydn-pe2DowMeDtWQ-36" value="Core" style="text;html=1;strokeColor=none;fillColor=none;align=center;verticalAlign=middle;whiteSpace=wrap;rounded=0;fontSize=20;fontStyle=1;labelBackgroundColor=default;" parent="1" vertex="1">
          <mxGeometry x="493" y="417" width="189" height="30" as="geometry" />
        </mxCell>
        <mxCell id="UEnFydn-pe2DowMeDtWQ-35" value="Platform" style="text;html=1;strokeColor=none;fillColor=none;align=center;verticalAlign=middle;whiteSpace=wrap;rounded=0;fontSize=20;fontStyle=1;labelBackgroundColor=default;" parent="1" vertex="1">
          <mxGeometry x="1230" y="417" width="189" height="30" as="geometry" />
        </mxCell>
        <mxCell id="UEnFydn-pe2DowMeDtWQ-66" value="" style="sketch=0;outlineConnect=0;fontColor=#232F3E;gradientColor=none;fillColor=#007FFF;strokeColor=none;dashed=0;verticalLabelPosition=bottom;verticalAlign=top;align=center;html=1;fontSize=12;fontStyle=0;aspect=fixed;pointerEvents=1;shape=mxgraph.aws4.organizations_account;" parent="1" vertex="1">
          <mxGeometry x="-261.48" y="737.5" width="38.89" height="41" as="geometry" />
        </mxCell>
        <mxCell id="b793zvSdY8i9Sv9kPf9C-1" value="" style="sketch=0;points=[[0,0,0],[0.25,0,0],[0.5,0,0],[0.75,0,0],[1,0,0],[0,1,0],[0.25,1,0],[0.5,1,0],[0.75,1,0],[1,1,0],[0,0.25,0],[0,0.5,0],[0,0.75,0],[1,0.25,0],[1,0.5,0],[1,0.75,0]];points=[[0,0,0],[0.25,0,0],[0.5,0,0],[0.75,0,0],[1,0,0],[0,1,0],[0.25,1,0],[0.5,1,0],[0.75,1,0],[1,1,0],[0,0.25,0],[0,0.5,0],[0,0.75,0],[1,0.25,0],[1,0.5,0],[1,0.75,0]];outlineConnect=0;fontColor=#232F3E;fillColor=#007FFF;strokeColor=#ffffff;dashed=0;verticalLabelPosition=bottom;verticalAlign=top;align=center;html=1;fontSize=12;fontStyle=0;aspect=fixed;shape=mxgraph.aws4.resourceIcon;resIcon=mxgraph.aws4.organizations;" parent="1" vertex="1">
          <mxGeometry x="1352.02" y="-264.5" width="70" height="70" as="geometry" />
        </mxCell>
        <mxCell id="b793zvSdY8i9Sv9kPf9C-2" value="Organization" style="text;html=1;strokeColor=none;fillColor=none;align=center;verticalAlign=middle;whiteSpace=wrap;rounded=0;fontSize=27;fontStyle=1;labelBackgroundColor=default;" parent="1" vertex="1">
          <mxGeometry x="1442.02" y="-244.5" width="190" height="30" as="geometry" />
        </mxCell>
        <mxCell id="b793zvSdY8i9Sv9kPf9C-3" value="" style="sketch=0;outlineConnect=0;fontColor=#232F3E;gradientColor=none;fillColor=#007FFF;strokeColor=none;dashed=0;verticalLabelPosition=bottom;verticalAlign=top;align=center;html=1;fontSize=12;fontStyle=0;aspect=fixed;pointerEvents=1;shape=mxgraph.aws4.organizations_organizational_unit;" parent="1" vertex="1">
          <mxGeometry x="1352.1699999999996" y="-164.5" width="69.85" height="60" as="geometry" />
        </mxCell>
        <mxCell id="b793zvSdY8i9Sv9kPf9C-4" value="Organizational Unit" style="text;html=1;strokeColor=none;fillColor=none;align=center;verticalAlign=middle;whiteSpace=wrap;rounded=0;fontSize=27;fontStyle=1;labelBackgroundColor=default;" parent="1" vertex="1">
          <mxGeometry x="1422.02" y="-144.5" width="310" height="30" as="geometry" />
        </mxCell>
        <mxCell id="b793zvSdY8i9Sv9kPf9C-5" value="" style="sketch=0;outlineConnect=0;fontColor=#232F3E;gradientColor=none;fillColor=#007FFF;strokeColor=none;dashed=0;verticalLabelPosition=bottom;verticalAlign=top;align=center;html=1;fontSize=12;fontStyle=0;aspect=fixed;pointerEvents=1;shape=mxgraph.aws4.organizations_account;" parent="1" vertex="1">
          <mxGeometry x="1367.75" y="-74.5" width="38.89" height="41" as="geometry" />
        </mxCell>
        <mxCell id="b793zvSdY8i9Sv9kPf9C-7" value="Member Accounts" style="text;html=1;strokeColor=none;fillColor=none;align=left;verticalAlign=middle;whiteSpace=wrap;rounded=0;fontSize=27;fontStyle=1;labelBackgroundColor=default;" parent="1" vertex="1">
          <mxGeometry x="1452.02" y="-69" width="310" height="30" as="geometry" />
        </mxCell>
        <mxCell id="aciZDJwyUX8wY66qhq3e-3" value="" style="sketch=0;outlineConnect=0;fontColor=#232F3E;gradientColor=none;fillColor=#007FFF;strokeColor=none;dashed=0;verticalLabelPosition=bottom;verticalAlign=top;align=center;html=1;fontSize=12;fontStyle=0;aspect=fixed;pointerEvents=1;shape=mxgraph.aws4.organizations_organizational_unit;" parent="1" vertex="1">
          <mxGeometry x="-235.92000000000002" y="549" width="104.78" height="90" as="geometry" />
        </mxCell>
        <mxCell id="aciZDJwyUX8wY66qhq3e-4" value="" style="endArrow=none;html=1;rounded=0;" parent="1" edge="1">
          <mxGeometry width="50" height="50" relative="1" as="geometry">
            <mxPoint x="-180.78" y="487" as="sourcePoint" />
            <mxPoint x="296.72" y="487" as="targetPoint" />
          </mxGeometry>
        </mxCell>
        <mxCell id="aciZDJwyUX8wY66qhq3e-5" value="" style="endArrow=classic;html=1;rounded=0;" parent="1" edge="1">
          <mxGeometry width="50" height="50" relative="1" as="geometry">
            <mxPoint x="-182.06" y="486" as="sourcePoint" />
            <mxPoint x="-182.06" y="546" as="targetPoint" />
          </mxGeometry>
        </mxCell>
        <mxCell id="aciZDJwyUX8wY66qhq3e-6" value="" style="endArrow=classic;html=1;rounded=0;" parent="1" edge="1">
          <mxGeometry width="50" height="50" relative="1" as="geometry">
            <mxPoint x="-20.78" y="487" as="sourcePoint" />
            <mxPoint x="-20.78" y="547" as="targetPoint" />
          </mxGeometry>
        </mxCell>
        <mxCell id="aciZDJwyUX8wY66qhq3e-7" value="" style="sketch=0;outlineConnect=0;fontColor=#232F3E;gradientColor=none;fillColor=#007FFF;strokeColor=none;dashed=0;verticalLabelPosition=bottom;verticalAlign=top;align=center;html=1;fontSize=12;fontStyle=0;aspect=fixed;pointerEvents=1;shape=mxgraph.aws4.organizations_organizational_unit;" parent="1" vertex="1">
          <mxGeometry x="-78.96" y="549" width="104.78" height="90" as="geometry" />
        </mxCell>
        <mxCell id="aciZDJwyUX8wY66qhq3e-8" value="" style="endArrow=classic;html=1;rounded=0;" parent="1" edge="1">
          <mxGeometry width="50" height="50" relative="1" as="geometry">
            <mxPoint x="132.88999999999996" y="487" as="sourcePoint" />
            <mxPoint x="132.88999999999996" y="547" as="targetPoint" />
          </mxGeometry>
        </mxCell>
        <mxCell id="aciZDJwyUX8wY66qhq3e-9" value="" style="sketch=0;outlineConnect=0;fontColor=#232F3E;gradientColor=none;fillColor=#007FFF;strokeColor=none;dashed=0;verticalLabelPosition=bottom;verticalAlign=top;align=center;html=1;fontSize=12;fontStyle=0;aspect=fixed;pointerEvents=1;shape=mxgraph.aws4.organizations_organizational_unit;" parent="1" vertex="1">
          <mxGeometry x="74.71000000000001" y="549" width="104.78" height="90" as="geometry" />
        </mxCell>
        <mxCell id="aciZDJwyUX8wY66qhq3e-10" value="" style="endArrow=classic;html=1;rounded=0;" parent="1" edge="1">
          <mxGeometry width="50" height="50" relative="1" as="geometry">
            <mxPoint x="295.4" y="487" as="sourcePoint" />
            <mxPoint x="295.4" y="547" as="targetPoint" />
          </mxGeometry>
        </mxCell>
        <mxCell id="aciZDJwyUX8wY66qhq3e-11" value="" style="sketch=0;outlineConnect=0;fontColor=#232F3E;gradientColor=none;fillColor=#007FFF;strokeColor=none;dashed=0;verticalLabelPosition=bottom;verticalAlign=top;align=center;html=1;fontSize=12;fontStyle=0;aspect=fixed;pointerEvents=1;shape=mxgraph.aws4.organizations_organizational_unit;" parent="1" vertex="1">
          <mxGeometry x="237.22" y="549" width="104.78" height="90" as="geometry" />
        </mxCell>
        <mxCell id="aciZDJwyUX8wY66qhq3e-12" value="" style="endArrow=none;html=1;rounded=0;" parent="1" edge="1">
          <mxGeometry width="50" height="50" relative="1" as="geometry">
            <mxPoint x="491" y="487" as="sourcePoint" />
            <mxPoint x="690" y="487" as="targetPoint" />
          </mxGeometry>
        </mxCell>
        <mxCell id="aciZDJwyUX8wY66qhq3e-13" value="" style="endArrow=classic;html=1;rounded=0;" parent="1" edge="1">
          <mxGeometry width="50" height="50" relative="1" as="geometry">
            <mxPoint x="489.4" y="486" as="sourcePoint" />
            <mxPoint x="489.4" y="546" as="targetPoint" />
          </mxGeometry>
        </mxCell>
        <mxCell id="aciZDJwyUX8wY66qhq3e-14" value="" style="sketch=0;outlineConnect=0;fontColor=#232F3E;gradientColor=none;fillColor=#007FFF;strokeColor=none;dashed=0;verticalLabelPosition=bottom;verticalAlign=top;align=center;html=1;fontSize=12;fontStyle=0;aspect=fixed;pointerEvents=1;shape=mxgraph.aws4.organizations_organizational_unit;" parent="1" vertex="1">
          <mxGeometry x="431.22" y="548" width="104.78" height="90" as="geometry" />
        </mxCell>
        <mxCell id="aciZDJwyUX8wY66qhq3e-15" value="" style="endArrow=classic;html=1;rounded=0;" parent="1" edge="1">
          <mxGeometry width="50" height="50" relative="1" as="geometry">
            <mxPoint x="691.18" y="486" as="sourcePoint" />
            <mxPoint x="691.18" y="546" as="targetPoint" />
          </mxGeometry>
        </mxCell>
        <mxCell id="aciZDJwyUX8wY66qhq3e-16" value="" style="sketch=0;outlineConnect=0;fontColor=#232F3E;gradientColor=none;fillColor=#007FFF;strokeColor=none;dashed=0;verticalLabelPosition=bottom;verticalAlign=top;align=center;html=1;fontSize=12;fontStyle=0;aspect=fixed;pointerEvents=1;shape=mxgraph.aws4.organizations_organizational_unit;" parent="1" vertex="1">
          <mxGeometry x="633" y="548" width="104.78" height="90" as="geometry" />
        </mxCell>
        <mxCell id="aciZDJwyUX8wY66qhq3e-17" value="" style="sketch=0;outlineConnect=0;fontColor=#232F3E;gradientColor=none;fillColor=#007FFF;strokeColor=none;dashed=0;verticalLabelPosition=bottom;verticalAlign=top;align=center;html=1;fontSize=12;fontStyle=0;aspect=fixed;pointerEvents=1;shape=mxgraph.aws4.organizations_organizational_unit;" parent="1" vertex="1">
          <mxGeometry x="850" y="543" width="104.78" height="90" as="geometry" />
        </mxCell>
        <mxCell id="aciZDJwyUX8wY66qhq3e-18" value="" style="endArrow=none;html=1;rounded=0;" parent="1" edge="1">
          <mxGeometry width="50" height="50" relative="1" as="geometry">
            <mxPoint x="905.1400000000001" y="481" as="sourcePoint" />
            <mxPoint x="1760" y="480" as="targetPoint" />
          </mxGeometry>
        </mxCell>
        <mxCell id="aciZDJwyUX8wY66qhq3e-19" value="" style="endArrow=classic;html=1;rounded=0;" parent="1" edge="1">
          <mxGeometry width="50" height="50" relative="1" as="geometry">
            <mxPoint x="903.8600000000001" y="480" as="sourcePoint" />
            <mxPoint x="903.8600000000001" y="540" as="targetPoint" />
          </mxGeometry>
        </mxCell>
        <mxCell id="aciZDJwyUX8wY66qhq3e-20" value="" style="endArrow=classic;html=1;rounded=0;" parent="1" edge="1">
          <mxGeometry width="50" height="50" relative="1" as="geometry">
            <mxPoint x="1075.14" y="481" as="sourcePoint" />
            <mxPoint x="1075.14" y="541" as="targetPoint" />
          </mxGeometry>
        </mxCell>
        <mxCell id="aciZDJwyUX8wY66qhq3e-21" value="" style="sketch=0;outlineConnect=0;fontColor=#232F3E;gradientColor=none;fillColor=#007FFF;strokeColor=none;dashed=0;verticalLabelPosition=bottom;verticalAlign=top;align=center;html=1;fontSize=12;fontStyle=0;aspect=fixed;pointerEvents=1;shape=mxgraph.aws4.organizations_organizational_unit;" parent="1" vertex="1">
          <mxGeometry x="1016.96" y="543" width="104.78" height="90" as="geometry" />
        </mxCell>
        <mxCell id="aciZDJwyUX8wY66qhq3e-22" value="" style="endArrow=classic;html=1;rounded=0;" parent="1" edge="1">
          <mxGeometry width="50" height="50" relative="1" as="geometry">
            <mxPoint x="1242.81" y="481" as="sourcePoint" />
            <mxPoint x="1242.81" y="541" as="targetPoint" />
          </mxGeometry>
        </mxCell>
        <mxCell id="aciZDJwyUX8wY66qhq3e-23" value="" style="sketch=0;outlineConnect=0;fontColor=#232F3E;gradientColor=none;fillColor=#007FFF;strokeColor=none;dashed=0;verticalLabelPosition=bottom;verticalAlign=top;align=center;html=1;fontSize=12;fontStyle=0;aspect=fixed;pointerEvents=1;shape=mxgraph.aws4.organizations_organizational_unit;" parent="1" vertex="1">
          <mxGeometry x="1184.63" y="543" width="104.78" height="90" as="geometry" />
        </mxCell>
        <mxCell id="aciZDJwyUX8wY66qhq3e-24" value="" style="endArrow=classic;html=1;rounded=0;" parent="1" edge="1">
          <mxGeometry width="50" height="50" relative="1" as="geometry">
            <mxPoint x="1416.3200000000002" y="481" as="sourcePoint" />
            <mxPoint x="1416.3200000000002" y="541" as="targetPoint" />
          </mxGeometry>
        </mxCell>
        <mxCell id="aciZDJwyUX8wY66qhq3e-25" value="" style="sketch=0;outlineConnect=0;fontColor=#232F3E;gradientColor=none;fillColor=#007FFF;strokeColor=none;dashed=0;verticalLabelPosition=bottom;verticalAlign=top;align=center;html=1;fontSize=12;fontStyle=0;aspect=fixed;pointerEvents=1;shape=mxgraph.aws4.organizations_organizational_unit;" parent="1" vertex="1">
          <mxGeometry x="1358.14" y="543" width="104.78" height="90" as="geometry" />
        </mxCell>
        <mxCell id="aciZDJwyUX8wY66qhq3e-26" value="" style="endArrow=classic;html=1;rounded=0;" parent="1" edge="1">
          <mxGeometry width="50" height="50" relative="1" as="geometry">
            <mxPoint x="1581.7000000000003" y="483" as="sourcePoint" />
            <mxPoint x="1581.7000000000003" y="543" as="targetPoint" />
          </mxGeometry>
        </mxCell>
        <mxCell id="aciZDJwyUX8wY66qhq3e-27" value="" style="sketch=0;outlineConnect=0;fontColor=#232F3E;gradientColor=none;fillColor=#007FFF;strokeColor=none;dashed=0;verticalLabelPosition=bottom;verticalAlign=top;align=center;html=1;fontSize=12;fontStyle=0;aspect=fixed;pointerEvents=1;shape=mxgraph.aws4.organizations_organizational_unit;" parent="1" vertex="1">
          <mxGeometry x="1529.61" y="543" width="104.78" height="90" as="geometry" />
        </mxCell>
        <mxCell id="aciZDJwyUX8wY66qhq3e-28" value="" style="endArrow=classic;html=1;rounded=0;" parent="1" edge="1">
          <mxGeometry width="50" height="50" relative="1" as="geometry">
            <mxPoint x="1760" y="480" as="sourcePoint" />
            <mxPoint x="1760.0000000000002" y="543" as="targetPoint" />
          </mxGeometry>
        </mxCell>
        <mxCell id="aciZDJwyUX8wY66qhq3e-29" value="" style="sketch=0;outlineConnect=0;fontColor=#232F3E;gradientColor=none;fillColor=#007FFF;strokeColor=none;dashed=0;verticalLabelPosition=bottom;verticalAlign=top;align=center;html=1;fontSize=12;fontStyle=0;aspect=fixed;pointerEvents=1;shape=mxgraph.aws4.organizations_organizational_unit;" parent="1" vertex="1">
          <mxGeometry x="1707.61" y="543" width="104.78" height="90" as="geometry" />
        </mxCell>
        <mxCell id="aciZDJwyUX8wY66qhq3e-30" value="Apps-Prod" style="text;html=1;strokeColor=none;fillColor=none;align=center;verticalAlign=middle;whiteSpace=wrap;rounded=0;fontSize=20;fontStyle=1;labelBackgroundColor=default;" parent="1" vertex="1">
          <mxGeometry x="-248.53" y="650" width="130" height="30" as="geometry" />
        </mxCell>
        <mxCell id="aciZDJwyUX8wY66qhq3e-31" value="Policy" style="text;html=1;strokeColor=none;fillColor=none;align=center;verticalAlign=middle;whiteSpace=wrap;rounded=0;fontSize=20;fontStyle=1;labelBackgroundColor=default;" parent="1" vertex="1">
          <mxGeometry x="1172.02" y="650" width="130" height="30" as="geometry" />
        </mxCell>
        <mxCell id="aciZDJwyUX8wY66qhq3e-32" value="Apps-Sandbox" style="text;html=1;strokeColor=none;fillColor=none;align=center;verticalAlign=middle;whiteSpace=wrap;rounded=0;fontSize=20;fontStyle=1;labelBackgroundColor=default;" parent="1" vertex="1">
          <mxGeometry x="198.82999999999998" y="650" width="181.57" height="30" as="geometry" />
        </mxCell>
        <mxCell id="aciZDJwyUX8wY66qhq3e-33" value="Apps-Dev" style="text;html=1;strokeColor=none;fillColor=none;align=center;verticalAlign=middle;whiteSpace=wrap;rounded=0;fontSize=20;fontStyle=1;labelBackgroundColor=default;" parent="1" vertex="1">
          <mxGeometry x="62.10000000000001" y="650" width="130" height="30" as="geometry" />
        </mxCell>
        <mxCell id="aciZDJwyUX8wY66qhq3e-34" value="Apps-QA" style="text;html=1;strokeColor=none;fillColor=none;align=center;verticalAlign=middle;whiteSpace=wrap;rounded=0;fontSize=20;fontStyle=1;labelBackgroundColor=default;" parent="1" vertex="1">
          <mxGeometry x="-91.57000000000001" y="650" width="130" height="30" as="geometry" />
        </mxCell>
        <mxCell id="aciZDJwyUX8wY66qhq3e-35" value="Security" style="text;html=1;strokeColor=none;fillColor=none;align=center;verticalAlign=middle;whiteSpace=wrap;rounded=0;fontSize=20;fontStyle=1;labelBackgroundColor=default;" parent="1" vertex="1">
          <mxGeometry x="420" y="650" width="130" height="30" as="geometry" />
        </mxCell>
        <mxCell id="aciZDJwyUX8wY66qhq3e-36" value="Infrastructure" style="text;html=1;strokeColor=none;fillColor=none;align=center;verticalAlign=middle;whiteSpace=wrap;rounded=0;fontSize=20;fontStyle=1;labelBackgroundColor=default;" parent="1" vertex="1">
          <mxGeometry x="620.39" y="650" width="130" height="30" as="geometry" />
        </mxCell>
        <mxCell id="aciZDJwyUX8wY66qhq3e-37" value="Unmanaged" style="text;html=1;strokeColor=none;fillColor=none;align=center;verticalAlign=middle;whiteSpace=wrap;rounded=0;fontSize=20;fontStyle=1;labelBackgroundColor=default;" parent="1" vertex="1">
          <mxGeometry x="1345.5300000000002" y="650" width="130" height="30" as="geometry" />
        </mxCell>
        <mxCell id="aciZDJwyUX8wY66qhq3e-38" value="Decommissioned" style="text;html=1;strokeColor=none;fillColor=none;align=center;verticalAlign=middle;whiteSpace=wrap;rounded=0;fontSize=20;fontStyle=1;labelBackgroundColor=default;" parent="1" vertex="1">
          <mxGeometry x="1517" y="650" width="130" height="30" as="geometry" />
        </mxCell>
        <mxCell id="aciZDJwyUX8wY66qhq3e-39" value="Quarantined" style="text;html=1;strokeColor=none;fillColor=none;align=center;verticalAlign=middle;whiteSpace=wrap;rounded=0;fontSize=20;fontStyle=1;labelBackgroundColor=default;" parent="1" vertex="1">
          <mxGeometry x="1695" y="650" width="130" height="30" as="geometry" />
        </mxCell>
        <mxCell id="aciZDJwyUX8wY66qhq3e-40" value="Marketplace" style="text;html=1;strokeColor=none;fillColor=none;align=center;verticalAlign=middle;whiteSpace=wrap;rounded=0;fontSize=20;fontStyle=1;labelBackgroundColor=default;" parent="1" vertex="1">
          <mxGeometry x="1004.35" y="650" width="130" height="30" as="geometry" />
        </mxCell>
        <mxCell id="aciZDJwyUX8wY66qhq3e-41" value="Sandbox" style="text;html=1;strokeColor=none;fillColor=none;align=center;verticalAlign=middle;whiteSpace=wrap;rounded=0;fontSize=20;fontStyle=1;labelBackgroundColor=default;" parent="1" vertex="1">
          <mxGeometry x="834.53" y="650" width="130" height="30" as="geometry" />
        </mxCell>
        <mxCell id="aciZDJwyUX8wY66qhq3e-43" value="1. app-prod" style="text;whiteSpace=wrap;fontSize=18;" parent="1" vertex="1">
          <mxGeometry x="-246.62" y="778.5" width="115.5" height="40" as="geometry" />
        </mxCell>
        <mxCell id="aciZDJwyUX8wY66qhq3e-44" value="" style="rounded=0;whiteSpace=wrap;html=1;" parent="1" vertex="1">
          <mxGeometry x="-98.63" y="727.5" width="138.63" height="172.5" as="geometry" />
        </mxCell>
        <mxCell id="aciZDJwyUX8wY66qhq3e-45" value="1 Account" style="text;html=1;strokeColor=none;fillColor=none;align=center;verticalAlign=middle;whiteSpace=wrap;rounded=0;fontSize=19;fontStyle=1" parent="1" vertex="1">
          <mxGeometry x="-90" y="734" width="160" height="30" as="geometry" />
        </mxCell>
        <mxCell id="aciZDJwyUX8wY66qhq3e-46" value="" style="sketch=0;outlineConnect=0;fontColor=#232F3E;gradientColor=none;fillColor=#007FFF;strokeColor=none;dashed=0;verticalLabelPosition=bottom;verticalAlign=top;align=center;html=1;fontSize=12;fontStyle=0;aspect=fixed;pointerEvents=1;shape=mxgraph.aws4.organizations_account;" parent="1" vertex="1">
          <mxGeometry x="-94.53" y="737.5" width="38.89" height="41" as="geometry" />
        </mxCell>
        <mxCell id="aciZDJwyUX8wY66qhq3e-47" value="1. app-qa" style="text;whiteSpace=wrap;fontSize=18;" parent="1" vertex="1">
          <mxGeometry x="-81.33000000000001" y="778.5" width="115.5" height="40" as="geometry" />
        </mxCell>
        <mxCell id="aciZDJwyUX8wY66qhq3e-48" value="" style="rounded=0;whiteSpace=wrap;html=1;" parent="1" vertex="1">
          <mxGeometry x="63.54" y="727.5" width="135.29" height="172.5" as="geometry" />
        </mxCell>
        <mxCell id="aciZDJwyUX8wY66qhq3e-49" value="1 Account" style="text;html=1;strokeColor=none;fillColor=none;align=center;verticalAlign=middle;whiteSpace=wrap;rounded=0;fontSize=19;fontStyle=1" parent="1" vertex="1">
          <mxGeometry x="67.64" y="734" width="160" height="30" as="geometry" />
        </mxCell>
        <mxCell id="aciZDJwyUX8wY66qhq3e-50" value="" style="sketch=0;outlineConnect=0;fontColor=#232F3E;gradientColor=none;fillColor=#007FFF;strokeColor=none;dashed=0;verticalLabelPosition=bottom;verticalAlign=top;align=center;html=1;fontSize=12;fontStyle=0;aspect=fixed;pointerEvents=1;shape=mxgraph.aws4.organizations_account;" parent="1" vertex="1">
          <mxGeometry x="67.64" y="737.5" width="38.89" height="41" as="geometry" />
        </mxCell>
        <mxCell id="aciZDJwyUX8wY66qhq3e-51" value="1. app-dev" style="text;whiteSpace=wrap;fontSize=18;" parent="1" vertex="1">
          <mxGeometry x="72.15999999999998" y="778.5" width="115.5" height="40" as="geometry" />
        </mxCell>
        <mxCell id="aciZDJwyUX8wY66qhq3e-52" value="" style="rounded=0;whiteSpace=wrap;html=1;" parent="1" vertex="1">
          <mxGeometry x="239.7" y="727.5" width="137.41" height="172.5" as="geometry" />
        </mxCell>
        <mxCell id="aciZDJwyUX8wY66qhq3e-53" value="1 Account" style="text;html=1;strokeColor=none;fillColor=none;align=center;verticalAlign=middle;whiteSpace=wrap;rounded=0;fontSize=19;fontStyle=1" parent="1" vertex="1">
          <mxGeometry x="243.79999999999998" y="734" width="160" height="30" as="geometry" />
        </mxCell>
        <mxCell id="aciZDJwyUX8wY66qhq3e-54" value="" style="sketch=0;outlineConnect=0;fontColor=#232F3E;gradientColor=none;fillColor=#007FFF;strokeColor=none;dashed=0;verticalLabelPosition=bottom;verticalAlign=top;align=center;html=1;fontSize=12;fontStyle=0;aspect=fixed;pointerEvents=1;shape=mxgraph.aws4.organizations_account;" parent="1" vertex="1">
          <mxGeometry x="243.79999999999998" y="737.5" width="38.89" height="41" as="geometry" />
        </mxCell>
        <mxCell id="aciZDJwyUX8wY66qhq3e-55" value="1. app-sandbox" style="text;whiteSpace=wrap;fontSize=18;" parent="1" vertex="1">
          <mxGeometry x="245.1" y="780" width="163.11" height="40" as="geometry" />
        </mxCell>
        <mxCell id="aciZDJwyUX8wY66qhq3e-59" value="" style="rounded=0;whiteSpace=wrap;html=1;" parent="1" vertex="1">
          <mxGeometry x="1688.63" y="726" width="150.1" height="174" as="geometry" />
        </mxCell>
        <mxCell id="aciZDJwyUX8wY66qhq3e-60" value="1 Account" style="text;html=1;strokeColor=none;fillColor=none;align=center;verticalAlign=middle;whiteSpace=wrap;rounded=0;fontSize=19;fontStyle=1" parent="1" vertex="1">
          <mxGeometry x="1692.93" y="734" width="160" height="30" as="geometry" />
        </mxCell>
        <mxCell id="aciZDJwyUX8wY66qhq3e-61" value="" style="sketch=0;outlineConnect=0;fontColor=#232F3E;gradientColor=none;fillColor=#007FFF;strokeColor=none;dashed=0;verticalLabelPosition=bottom;verticalAlign=top;align=center;html=1;fontSize=12;fontStyle=0;aspect=fixed;pointerEvents=1;shape=mxgraph.aws4.organizations_account;" parent="1" vertex="1">
          <mxGeometry x="1692.73" y="736" width="38.89" height="41" as="geometry" />
        </mxCell>
        <mxCell id="aciZDJwyUX8wY66qhq3e-62" value="1. app-sandbox" style="text;whiteSpace=wrap;fontSize=18;" parent="1" vertex="1">
          <mxGeometry x="1692.93" y="786" width="163.11" height="40" as="geometry" />
        </mxCell>
        <mxCell id="aciZDJwyUX8wY66qhq3e-63" value="" style="rounded=0;whiteSpace=wrap;html=1;" parent="1" vertex="1">
          <mxGeometry x="420" y="727.5" width="161.32" height="172.5" as="geometry" />
        </mxCell>
        <mxCell id="aciZDJwyUX8wY66qhq3e-64" value="2 Accounts" style="text;html=1;strokeColor=none;fillColor=none;align=center;verticalAlign=middle;whiteSpace=wrap;rounded=0;fontSize=19;fontStyle=1" parent="1" vertex="1">
          <mxGeometry x="442.8499999999999" y="734" width="160" height="30" as="geometry" />
        </mxCell>
        <mxCell id="aciZDJwyUX8wY66qhq3e-65" value="" style="sketch=0;outlineConnect=0;fontColor=#232F3E;gradientColor=none;fillColor=#007FFF;strokeColor=none;dashed=0;verticalLabelPosition=bottom;verticalAlign=top;align=center;html=1;fontSize=12;fontStyle=0;aspect=fixed;pointerEvents=1;shape=mxgraph.aws4.organizations_account;" parent="1" vertex="1">
          <mxGeometry x="431.2199999999999" y="737.5" width="38.89" height="41" as="geometry" />
        </mxCell>
        <mxCell id="aciZDJwyUX8wY66qhq3e-66" value="1. app-security-audit&#xa;2. app-security-log-archive" style="text;whiteSpace=wrap;fontSize=18;" parent="1" vertex="1">
          <mxGeometry x="435.52" y="795" width="144.48" height="40" as="geometry" />
        </mxCell>
        <mxCell id="aciZDJwyUX8wY66qhq3e-67" value="" style="rounded=0;whiteSpace=wrap;html=1;" parent="1" vertex="1">
          <mxGeometry x="614.21" y="727.5" width="161.32" height="172.5" as="geometry" />
        </mxCell>
        <mxCell id="aciZDJwyUX8wY66qhq3e-68" value="2 Accounts" style="text;html=1;strokeColor=none;fillColor=none;align=center;verticalAlign=middle;whiteSpace=wrap;rounded=0;fontSize=19;fontStyle=1" parent="1" vertex="1">
          <mxGeometry x="634.9999999999999" y="734" width="160" height="30" as="geometry" />
        </mxCell>
        <mxCell id="aciZDJwyUX8wY66qhq3e-69" value="" style="sketch=0;outlineConnect=0;fontColor=#232F3E;gradientColor=none;fillColor=#007FFF;strokeColor=none;dashed=0;verticalLabelPosition=bottom;verticalAlign=top;align=center;html=1;fontSize=12;fontStyle=0;aspect=fixed;pointerEvents=1;shape=mxgraph.aws4.organizations_account;" parent="1" vertex="1">
          <mxGeometry x="620.3899999999999" y="737.5" width="38.89" height="41" as="geometry" />
        </mxCell>
        <mxCell id="aciZDJwyUX8wY66qhq3e-70" value="1. infrastructure-network&#xa;2. infrastructure-shared-services" style="text;whiteSpace=wrap;fontSize=18;" parent="1" vertex="1">
          <mxGeometry x="627.67" y="795" width="144.48" height="40" as="geometry" />
        </mxCell>
        <mxCell id="aciZDJwyUX8wY66qhq3e-71" value="" style="rounded=0;whiteSpace=wrap;html=1;" parent="1" vertex="1">
          <mxGeometry x="828.33" y="726" width="150.1" height="174" as="geometry" />
        </mxCell>
        <mxCell id="aciZDJwyUX8wY66qhq3e-72" value="1 Account" style="text;html=1;strokeColor=none;fillColor=none;align=center;verticalAlign=middle;whiteSpace=wrap;rounded=0;fontSize=19;fontStyle=1" parent="1" vertex="1">
          <mxGeometry x="844.29" y="734" width="160" height="30" as="geometry" />
        </mxCell>
        <mxCell id="aciZDJwyUX8wY66qhq3e-73" value="" style="sketch=0;outlineConnect=0;fontColor=#232F3E;gradientColor=none;fillColor=#007FFF;strokeColor=none;dashed=0;verticalLabelPosition=bottom;verticalAlign=top;align=center;html=1;fontSize=12;fontStyle=0;aspect=fixed;pointerEvents=1;shape=mxgraph.aws4.organizations_account;" parent="1" vertex="1">
          <mxGeometry x="842.06" y="737.5" width="38.89" height="41" as="geometry" />
        </mxCell>
        <mxCell id="aciZDJwyUX8wY66qhq3e-74" value="1. app-sandbox" style="text;whiteSpace=wrap;fontSize=18;" parent="1" vertex="1">
          <mxGeometry x="832.63" y="786" width="163.11" height="40" as="geometry" />
        </mxCell>
        <mxCell id="aciZDJwyUX8wY66qhq3e-75" value="" style="rounded=0;whiteSpace=wrap;html=1;" parent="1" vertex="1">
          <mxGeometry x="1000.19" y="726" width="150.1" height="174" as="geometry" />
        </mxCell>
        <mxCell id="aciZDJwyUX8wY66qhq3e-76" value="1 Account" style="text;html=1;strokeColor=none;fillColor=none;align=center;verticalAlign=middle;whiteSpace=wrap;rounded=0;fontSize=19;fontStyle=1" parent="1" vertex="1">
          <mxGeometry x="1011.9" y="734" width="160" height="30" as="geometry" />
        </mxCell>
        <mxCell id="aciZDJwyUX8wY66qhq3e-77" value="" style="sketch=0;outlineConnect=0;fontColor=#232F3E;gradientColor=none;fillColor=#007FFF;strokeColor=none;dashed=0;verticalLabelPosition=bottom;verticalAlign=top;align=center;html=1;fontSize=12;fontStyle=0;aspect=fixed;pointerEvents=1;shape=mxgraph.aws4.organizations_account;" parent="1" vertex="1">
          <mxGeometry x="1004.49" y="739" width="38.89" height="41" as="geometry" />
        </mxCell>
        <mxCell id="aciZDJwyUX8wY66qhq3e-78" value="1. app-sandbox" style="text;whiteSpace=wrap;fontSize=18;" parent="1" vertex="1">
          <mxGeometry x="1004.49" y="786" width="163.11" height="40" as="geometry" />
        </mxCell>
        <mxCell id="aciZDJwyUX8wY66qhq3e-79" value="" style="rounded=0;whiteSpace=wrap;html=1;" parent="1" vertex="1">
          <mxGeometry x="1167.6" y="726" width="150.1" height="174" as="geometry" />
        </mxCell>
        <mxCell id="aciZDJwyUX8wY66qhq3e-80" value="1 Account" style="text;html=1;strokeColor=none;fillColor=none;align=center;verticalAlign=middle;whiteSpace=wrap;rounded=0;fontSize=19;fontStyle=1" parent="1" vertex="1">
          <mxGeometry x="1179.3099999999997" y="734" width="160" height="30" as="geometry" />
        </mxCell>
        <mxCell id="aciZDJwyUX8wY66qhq3e-81" value="" style="sketch=0;outlineConnect=0;fontColor=#232F3E;gradientColor=none;fillColor=#007FFF;strokeColor=none;dashed=0;verticalLabelPosition=bottom;verticalAlign=top;align=center;html=1;fontSize=12;fontStyle=0;aspect=fixed;pointerEvents=1;shape=mxgraph.aws4.organizations_account;" parent="1" vertex="1">
          <mxGeometry x="1172.0199999999998" y="737.5" width="38.89" height="41" as="geometry" />
        </mxCell>
        <mxCell id="aciZDJwyUX8wY66qhq3e-82" value="1. app-sandbox" style="text;whiteSpace=wrap;fontSize=18;" parent="1" vertex="1">
          <mxGeometry x="1171.8999999999999" y="786" width="163.11" height="40" as="geometry" />
        </mxCell>
        <mxCell id="aciZDJwyUX8wY66qhq3e-83" value="" style="rounded=0;whiteSpace=wrap;html=1;" parent="1" vertex="1">
          <mxGeometry x="1335.01" y="726" width="150.1" height="174" as="geometry" />
        </mxCell>
        <mxCell id="aciZDJwyUX8wY66qhq3e-84" value="1 Account" style="text;html=1;strokeColor=none;fillColor=none;align=center;verticalAlign=middle;whiteSpace=wrap;rounded=0;fontSize=19;fontStyle=1" parent="1" vertex="1">
          <mxGeometry x="1349.9999999999998" y="734" width="160" height="30" as="geometry" />
        </mxCell>
        <mxCell id="aciZDJwyUX8wY66qhq3e-85" value="" style="sketch=0;outlineConnect=0;fontColor=#232F3E;gradientColor=none;fillColor=#007FFF;strokeColor=none;dashed=0;verticalLabelPosition=bottom;verticalAlign=top;align=center;html=1;fontSize=12;fontStyle=0;aspect=fixed;pointerEvents=1;shape=mxgraph.aws4.organizations_account;" parent="1" vertex="1">
          <mxGeometry x="1339.31" y="736" width="38.89" height="41" as="geometry" />
        </mxCell>
        <mxCell id="aciZDJwyUX8wY66qhq3e-86" value="1. app-sandbox" style="text;whiteSpace=wrap;fontSize=18;" parent="1" vertex="1">
          <mxGeometry x="1339.31" y="786" width="163.11" height="40" as="geometry" />
        </mxCell>
        <mxCell id="aciZDJwyUX8wY66qhq3e-87" value="" style="rounded=0;whiteSpace=wrap;html=1;" parent="1" vertex="1">
          <mxGeometry x="1510" y="726" width="150.1" height="174" as="geometry" />
        </mxCell>
        <mxCell id="aciZDJwyUX8wY66qhq3e-88" value="1 Account" style="text;html=1;strokeColor=none;fillColor=none;align=center;verticalAlign=middle;whiteSpace=wrap;rounded=0;fontSize=19;fontStyle=1" parent="1" vertex="1">
          <mxGeometry x="1517.4099999999999" y="734" width="160" height="30" as="geometry" />
        </mxCell>
        <mxCell id="aciZDJwyUX8wY66qhq3e-89" value="" style="sketch=0;outlineConnect=0;fontColor=#232F3E;gradientColor=none;fillColor=#007FFF;strokeColor=none;dashed=0;verticalLabelPosition=bottom;verticalAlign=top;align=center;html=1;fontSize=12;fontStyle=0;aspect=fixed;pointerEvents=1;shape=mxgraph.aws4.organizations_account;" parent="1" vertex="1">
          <mxGeometry x="1514.1" y="736" width="38.89" height="41" as="geometry" />
        </mxCell>
        <mxCell id="aciZDJwyUX8wY66qhq3e-90" value="1. app-sandbox" style="text;whiteSpace=wrap;fontSize=18;" parent="1" vertex="1">
          <mxGeometry x="1514.3" y="786" width="163.11" height="40" as="geometry" />
        </mxCell>
        <mxCell id="aciZDJwyUX8wY66qhq3e-91" value="" style="endArrow=classic;html=1;rounded=0;" parent="1" edge="1">
          <mxGeometry width="50" height="50" relative="1" as="geometry">
            <mxPoint x="1759.79" y="680" as="sourcePoint" />
            <mxPoint x="1759.75" y="717" as="targetPoint" />
          </mxGeometry>
        </mxCell>
        <mxCell id="aciZDJwyUX8wY66qhq3e-92" value="" style="endArrow=classic;html=1;rounded=0;" parent="1" edge="1">
          <mxGeometry width="50" height="50" relative="1" as="geometry">
            <mxPoint x="1581.79" y="680" as="sourcePoint" />
            <mxPoint x="1581.75" y="717" as="targetPoint" />
          </mxGeometry>
        </mxCell>
        <mxCell id="aciZDJwyUX8wY66qhq3e-93" value="" style="endArrow=classic;html=1;rounded=0;" parent="1" edge="1">
          <mxGeometry width="50" height="50" relative="1" as="geometry">
            <mxPoint x="1419.04" y="680" as="sourcePoint" />
            <mxPoint x="1419" y="717" as="targetPoint" />
          </mxGeometry>
        </mxCell>
        <mxCell id="aciZDJwyUX8wY66qhq3e-94" value="" style="endArrow=classic;html=1;rounded=0;" parent="1" edge="1">
          <mxGeometry width="50" height="50" relative="1" as="geometry">
            <mxPoint x="1242.44" y="680" as="sourcePoint" />
            <mxPoint x="1242.4" y="717" as="targetPoint" />
          </mxGeometry>
        </mxCell>
        <mxCell id="aciZDJwyUX8wY66qhq3e-95" value="" style="endArrow=classic;html=1;rounded=0;" parent="1" edge="1">
          <mxGeometry width="50" height="50" relative="1" as="geometry">
            <mxPoint x="1075.03" y="680" as="sourcePoint" />
            <mxPoint x="1074.99" y="717" as="targetPoint" />
          </mxGeometry>
        </mxCell>
        <mxCell id="aciZDJwyUX8wY66qhq3e-96" value="" style="endArrow=classic;html=1;rounded=0;" parent="1" edge="1">
          <mxGeometry width="50" height="50" relative="1" as="geometry">
            <mxPoint x="903.17" y="680" as="sourcePoint" />
            <mxPoint x="903.13" y="717" as="targetPoint" />
          </mxGeometry>
        </mxCell>
        <mxCell id="aciZDJwyUX8wY66qhq3e-97" value="" style="endArrow=classic;html=1;rounded=0;" parent="1" edge="1">
          <mxGeometry width="50" height="50" relative="1" as="geometry">
            <mxPoint x="682.04" y="680" as="sourcePoint" />
            <mxPoint x="682" y="717" as="targetPoint" />
          </mxGeometry>
        </mxCell>
        <mxCell id="aciZDJwyUX8wY66qhq3e-98" value="" style="endArrow=classic;html=1;rounded=0;" parent="1" edge="1">
          <mxGeometry width="50" height="50" relative="1" as="geometry">
            <mxPoint x="493.03999999999996" y="680" as="sourcePoint" />
            <mxPoint x="493" y="717" as="targetPoint" />
          </mxGeometry>
        </mxCell>
        <mxCell id="aciZDJwyUX8wY66qhq3e-99" value="" style="endArrow=classic;html=1;rounded=0;" parent="1" edge="1">
          <mxGeometry width="50" height="50" relative="1" as="geometry">
            <mxPoint x="289.4" y="680" as="sourcePoint" />
            <mxPoint x="289.36" y="717" as="targetPoint" />
          </mxGeometry>
        </mxCell>
        <mxCell id="aciZDJwyUX8wY66qhq3e-100" value="" style="endArrow=classic;html=1;rounded=0;" parent="1" edge="1">
          <mxGeometry width="50" height="50" relative="1" as="geometry">
            <mxPoint x="130.96999999999997" y="680" as="sourcePoint" />
            <mxPoint x="130.93" y="717" as="targetPoint" />
          </mxGeometry>
        </mxCell>
        <mxCell id="aciZDJwyUX8wY66qhq3e-101" value="" style="endArrow=classic;html=1;rounded=0;" parent="1" edge="1">
          <mxGeometry width="50" height="50" relative="1" as="geometry">
            <mxPoint x="-23.79000000000002" y="680" as="sourcePoint" />
            <mxPoint x="-23.829999999999984" y="717" as="targetPoint" />
          </mxGeometry>
        </mxCell>
        <mxCell id="aciZDJwyUX8wY66qhq3e-102" value="" style="endArrow=classic;html=1;rounded=0;" parent="1" edge="1">
          <mxGeometry width="50" height="50" relative="1" as="geometry">
            <mxPoint x="-181.69000000000003" y="680" as="sourcePoint" />
            <mxPoint x="-181.73" y="717" as="targetPoint" />
          </mxGeometry>
        </mxCell>
        <mxCell id="127TgH38fJcYmFcFG0n7-3" style="edgeStyle=orthogonalEdgeStyle;rounded=0;orthogonalLoop=1;jettySize=auto;html=1;endArrow=none;endFill=0;" parent="1" source="127TgH38fJcYmFcFG0n7-1" target="127TgH38fJcYmFcFG0n7-2" edge="1">
          <mxGeometry relative="1" as="geometry" />
        </mxCell>
        <mxCell id="127TgH38fJcYmFcFG0n7-1" value="Root" style="sketch=0;points=[[0,0,0],[0.25,0,0],[0.5,0,0],[0.75,0,0],[1,0,0],[0,1,0],[0.25,1,0],[0.5,1,0],[0.75,1,0],[1,1,0],[0,0.25,0],[0,0.5,0],[0,0.75,0],[1,0.25,0],[1,0.5,0],[1,0.75,0]];points=[[0,0,0],[0.25,0,0],[0.5,0,0],[0.75,0,0],[1,0,0],[0,1,0],[0.25,1,0],[0.5,1,0],[0.75,1,0],[1,1,0],[0,0.25,0],[0,0.5,0],[0,0.75,0],[1,0.25,0],[1,0.5,0],[1,0.75,0]];outlineConnect=0;fontColor=#232F3E;fillColor=#007FFF;strokeColor=#ffffff;dashed=0;verticalLabelPosition=bottom;verticalAlign=top;align=center;html=1;fontSize=20;fontStyle=1;aspect=fixed;shape=mxgraph.aws4.resourceIcon;resIcon=mxgraph.aws4.organizations;labelBackgroundColor=default;" parent="1" vertex="1">
          <mxGeometry x="619.03" y="-310" width="160" height="160" as="geometry" />
        </mxCell>
        <mxCell id="127TgH38fJcYmFcFG0n7-2" value="" style="sketch=0;outlineConnect=0;fontColor=#232F3E;gradientColor=none;fillColor=#007FFF;strokeColor=none;dashed=0;verticalLabelPosition=bottom;verticalAlign=top;align=center;html=1;fontSize=12;fontStyle=0;aspect=fixed;pointerEvents=1;shape=mxgraph.aws4.organizations_organizational_unit;" parent="1" vertex="1">
          <mxGeometry x="635" y="-30" width="128.06" height="110" as="geometry" />
        </mxCell>
      </root>
    </mxGraphModel>
  </diagram>
</mxfile>
